<?xml version="1.0" standalone="no"?>
<!DOCTYPE svg PUBLIC "-//W3C//DTD SVG 20010904//EN"
 "http://www.w3.org/TR/2001/REC-SVG-20010904/DTD/svg10.dtd">
<svg version="1.0" xmlns="http://www.w3.org/2000/svg"
 width="600.000000pt" height="600.000000pt" viewBox="0 0 600.000000 600.000000"
 preserveAspectRatio="xMidYMid meet">

<g transform="translate(0.000000,600.000000) scale(0.100000,-0.100000)"
fill="#49c91a" stroke="none">
<path d="M2362 3958 c-677 -677 -657 -653 -657 -803 1 -65 6 -91 26 -136 65
-139 216 -218 364 -189 33 6 78 22 100 35 22 13 134 118 250 234 115 116 213
211 217 211 4 0 9 -366 10 -812 l3 -813 27 -50 c107 -200 360 -247 521 -96 27
25 61 68 75 96 l27 50 3 813 c1 446 4 812 6 812 2 0 98 -94 213 -208 114 -115
228 -220 253 -234 170 -98 379 -30 467 151 24 47 28 69 28 136 -1 150 24 120
-653 798 l-597 597 -45 0 -45 0 -593 -592z"/>
</g>
</svg>
