<?xml version="1.0" standalone="no"?>
<!DOCTYPE svg PUBLIC "-//W3C//DTD SVG 20010904//EN"
 "http://www.w3.org/TR/2001/REC-SVG-20010904/DTD/svg10.dtd">
<svg version="1.0" xmlns="http://www.w3.org/2000/svg"
 width="489.000000pt" height="203.000000pt" viewBox="0 0 1280.000000 432.000000"
 preserveAspectRatio="xMidYMid meet">

<g transform="translate(0.000000,432.000000) scale(0.100000,-0.100000)"
fill="#ffffff" stroke="none">
<path d="M5066 3600 c-109 -23 -139 -35 -249 -98 -81 -47 -205 -139 -206 -154
-1 -8 76 -25 149 -33 30 -3 93 -17 140 -31 266 -81 459 -259 555 -512 45 -120
51 -136 63 -192 6 -25 14 -58 18 -75 4 -16 10 -471 13 -1010 l6 -980 383 -3
382 -2 0 988 c0 989 -2 1059 -36 1232 -32 160 -57 236 -126 375 -102 207 -270
365 -478 449 -162 66 -426 85 -614 46z"/>
<path d="M6563 2593 c4 -934 9 -1121 37 -1262 43 -216 167 -463 308 -613 95
-100 248 -195 372 -230 124 -35 170 -41 315 -41 189 0 292 22 430 91 117 58
272 173 260 192 -2 4 -37 11 -77 14 -239 23 -408 97 -561 245 -108 104 -147
164 -237 366 -65 146 -70 221 -77 1278 l-5 927 -384 0 -384 0 3 -967z"/>
<path d="M8600 2483 c0 -1078 -4 -1233 -36 -1373 -22 -98 -90 -213 -176 -298
l-73 -74 85 5 c231 13 447 100 614 247 155 136 257 302 304 495 53 215 52 185
52 1158 l0 917 -385 0 -385 0 0 -1077z"/>
<path d="M4440 3330 c-14 -4 -41 -8 -60 -9 -40 -1 -148 -32 -240 -69 -248 -99
-474 -333 -550 -571 -10 -31 -25 -94 -34 -141 -9 -47 -21 -107 -26 -133 -6
-29 -10 -424 -10 -973 l0 -924 384 0 384 0 5 23 c3 12 6 499 7 1082 0 696 4
1089 11 1145 24 189 119 397 244 531 18 20 31 40 28 43 -9 8 -113 6 -143 -4z"/>
</g>
</svg>
