<?xml version="1.0" standalone="no"?>
<!DOCTYPE svg PUBLIC "-//W3C//DTD SVG 20010904//EN"
 "http://www.w3.org/TR/2001/REC-SVG-20010904/DTD/svg10.dtd">
<svg version="1.0" xmlns="http://www.w3.org/2000/svg"
 width="300.000000pt" height="300.000000pt" viewBox="0 0 300.000000 300.000000"
 preserveAspectRatio="xMidYMid meet">

<g transform="translate(0.000000,300.000000) scale(0.100000,-0.100000)"
fill="#e92929" stroke="none">
<path d="M1035 2064 c-135 -19 -230 -47 -330 -97 -260 -130 -442 -368 -506
-662 -16 -77 -16 -283 0 -360 83 -383 363 -663 746 -746 77 -16 283 -16 360 0
189 41 354 130 485 261 368 368 368 962 0 1330 -127 128 -283 213 -461 255
-68 15 -241 27 -294 19z m279 -149 c147 -38 256 -99 364 -200 116 -109 181
-215 228 -372 23 -76 27 -106 27 -218 0 -112 -4 -142 -27 -218 -44 -146 -98
-240 -200 -345 -103 -108 -212 -173 -363 -218 -119 -36 -297 -38 -418 -5 -154
41 -277 114 -381 222 -104 110 -157 201 -200 346 -23 76 -27 106 -27 218 0
112 4 142 27 218 69 229 215 406 421 509 163 82 381 107 549 63z"/>
<path d="M522 1174 c-15 -10 -22 -25 -22 -49 0 -67 -22 -65 625 -65 647 0 625
-2 625 65 0 67 22 65 -625 65 -509 0 -583 -2 -603 -16z"/>
</g>
</svg>
