<?xml version="1.0" standalone="no"?>
<!DOCTYPE svg PUBLIC "-//W3C//DTD SVG 20010904//EN"
 "http://www.w3.org/TR/2001/REC-SVG-20010904/DTD/svg10.dtd">
<svg version="1.0" xmlns="http://www.w3.org/2000/svg"
 width="600.000000pt" height="600.000000pt" viewBox="0 0 600.000000 600.000000"
 preserveAspectRatio="xMidYMid meet">

<g transform="translate(0.000000,600.000000) scale(0.100000,-0.100000)"
fill="#e92929" stroke="none">
<path d="M2876 4526 c-70 -30 -137 -92 -174 -161 l-27 -50 -3 -812 c-1 -447
-4 -813 -6 -813 -2 0 -101 96 -218 213 -255 254 -283 272 -414 271 -67 0 -90
-5 -137 -27 -71 -35 -129 -94 -164 -165 -24 -48 -28 -70 -28 -137 1 -150 -24
-120 653 -797 l597 -598 45 0 45 0 597 598 c677 677 652 647 652 797 0 65 -4
90 -25 136 -82 175 -303 249 -464 154 -22 -13 -134 -118 -250 -234 -115 -116
-213 -211 -217 -211 -4 0 -9 366 -10 813 l-3 812 -27 50 c-61 115 -160 177
-288 183 -62 2 -85 -2 -134 -22z"/>
</g>
</svg>
