<?xml version="1.0" standalone="no"?>
<!DOCTYPE svg PUBLIC "-//W3C//DTD SVG 20010904//EN"
 "http://www.w3.org/TR/2001/REC-SVG-20010904/DTD/svg10.dtd">
<svg version="1.0" xmlns="http://www.w3.org/2000/svg"
 width="300.000000pt" height="300.000000pt" viewBox="0 0 300.000000 300.000000"
 preserveAspectRatio="xMidYMid meet">

<g transform="translate(0.000000,300.000000) scale(0.100000,-0.100000)"
fill="#ffffff" stroke="none">
<path d="M1385 2330 c-275 -44 -509 -212 -630 -455 -264 -532 85 -1155 678
-1210 85 -8 107 0 107 41 0 32 -21 40 -115 47 -293 22 -553 238 -647 537 -30
99 -33 311 -5 405 83 275 282 467 557 536 164 42 379 14 526 -67 206 -114 347
-309 386 -534 15 -85 9 -91 -64 -84 l-49 5 33 -58 c18 -32 56 -98 84 -147 l52
-88 42 73 c24 41 60 104 81 141 22 36 39 69 39 72 0 3 -27 6 -59 6 l-60 0 -6
48 c-10 70 -41 183 -69 246 -98 220 -319 407 -554 467 -90 23 -243 32 -327 19z"/>
<path d="M1460 1871 c0 -36 -3 -40 -30 -46 -37 -8 -86 -48 -104 -84 -21 -41
-27 -107 -15 -156 17 -69 58 -99 172 -125 98 -22 132 -42 143 -85 30 -120
-157 -166 -264 -65 l-24 22 -28 -33 c-16 -19 -29 -37 -30 -41 0 -15 74 -62
123 -79 48 -16 52 -20 55 -53 3 -35 4 -36 48 -36 l44 0 0 40 c0 35 3 40 23 40
31 0 96 40 121 73 15 21 21 46 24 100 5 121 -30 162 -175 199 -98 25 -131 42
-139 73 -11 42 5 94 33 112 37 24 118 22 171 -4 l42 -20 26 34 c20 26 23 37
14 48 -12 15 -93 45 -122 45 -14 0 -18 8 -18 40 l0 40 -45 0 -45 0 0 -39z"/>
</g>
</svg>
